HIERARCHY
ROOT hip
{
	OFFSET 0.000000 0.000000 0.000000 
	CHANNELS 6 Xposition Yposition Zposition Xrotation Zrotation Yrotation
	JOINT abdomen
	{
		OFFSET 0.000000 3.402643 0.000000 
		CHANNELS 3 Xrotation Zrotation Yrotation
		JOINT chest
		{
			OFFSET 0.000000 8.438565 -0.680529 
			CHANNELS 3 Xrotation Zrotation Yrotation
			JOINT neck
			{
				OFFSET 0.000000 10.207942 -0.272212 
				CHANNELS 3 Xrotation Zrotation Yrotation
				JOINT head
				{
					OFFSET 0.000000 3.130431 0.000000 
					CHANNELS 3 Xrotation Zrotation Yrotation
					End Site
					{
						OFFSET 0.000000 3.130435 0.000000 
					}
				}
			}
			JOINT lCollar
			{
				OFFSET 3.470700 6.669187 -0.816635 
				CHANNELS 3 Yrotation Zrotation Xrotation
				JOINT lShldr
				{
					OFFSET 3.198488 0.000000 0.000000 
					CHANNELS 3 Zrotation Yrotation Xrotation
					JOINT lForeArm
					{
						OFFSET 10.139888 0.000000 0.000000 
						CHANNELS 3 Yrotation Zrotation Xrotation
						JOINT lHand
						{
							OFFSET 8.370511 0.000000 0.000000 
							CHANNELS 3 Zrotation Yrotation Xrotation
							End Site
							{
								OFFSET 4.083176 0.000000 0.000000 
							}
						}
					}
				}
			}
			JOINT rCollar
			{
				OFFSET -3.470700 6.669187 -0.816635 
				CHANNELS 3 Yrotation Zrotation Xrotation
				JOINT rShldr
				{
					OFFSET -3.198488 0.000000 0.000000 
					CHANNELS 3 Zrotation Yrotation Xrotation
					JOINT rForeArm
					{
						OFFSET -10.139888 0.000000 0.000000 
						CHANNELS 3 Yrotation Zrotation Xrotation
						JOINT rHand
						{
							OFFSET -8.370511 0.000000 0.000000 
							CHANNELS 3 Zrotation Yrotation Xrotation
							End Site
							{
								OFFSET -4.083176 0.000000 0.000000 
							}
						}
					}
				}
			}
		}
	}
	JOINT lThigh
	{
		OFFSET 5.308129 -1.633274 1.361059 
		CHANNELS 3 Xrotation Zrotation Yrotation
		JOINT lShin
		{
			OFFSET -2.041588 -20.007561 0.000000 
			CHANNELS 3 Xrotation Zrotation Yrotation
			JOINT lFoot
			{
				OFFSET 0.000000 -19.190928 -1.224953 
				CHANNELS 3 Xrotation Yrotation Zrotation
				End Site
				{
					OFFSET 0.000000 -2.449906 4.627600 
				}
			}
		}
	}
	JOINT rThigh
	{
		OFFSET -5.308129 -1.633274 1.361059 
		CHANNELS 3 Xrotation Zrotation Yrotation
		JOINT rShin
		{
			OFFSET 2.041588 -20.007561 0.000000 
			CHANNELS 3 Xrotation Zrotation Yrotation
			JOINT rFoot
			{
				OFFSET 0.000000 -19.190928 -1.224953 
				CHANNELS 3 Xrotation Yrotation Zrotation
				End Site
				{
					OFFSET 0.000000 -2.449906 4.627600 
				}
			}
		}
	}
}
MOTION
Frames: 18
Frame Time: 0.033333
-43.171738 50.621777 0.714899 0.205082 0.341795 40.079411 0.000000 0.000000 0.000000 -4.023471 0.233797 -0.270351 5.393849 -0.617486 7.833696 -8.529474 1.231877 7.237559 -2.292219 2.155806 -3.032938 8.224929 -64.293312 -56.403595 -105.293068 5.279934 32.493889 19.111687 -0.369996 -4.074222 9.519353 14.653367 -4.267464 51.711311 -24.430527 9.187468 44.328751 11.189694 22.945860 -0.410176 -9.128116 -3.565628 9.045182 7.319605 7.690125 -2.363915 -3.444540 10.555243 -4.471152 0.237491 -6.195786 8.403403 -7.935953 -9.255564 0.099286 3.470057 -14.542665 -5.592891 -0.349857 6.848787 
-43.145054 50.610703 0.729459 0.253909 0.253904 40.098820 0.000000 0.000000 0.000000 -4.082068 0.243521 -0.261520 5.178243 -0.545842 7.840094 -8.285530 1.270861 7.211938 -2.206741 2.416953 -3.074687 8.301152 -64.346588 -56.617470 -105.268967 5.264078 32.616650 19.224689 -0.439734 -4.088088 9.467937 14.540590 -4.303364 51.875908 -24.335999 9.153159 44.403950 11.165983 22.837669 -0.287908 -9.228347 -3.570019 8.971579 7.341908 7.673350 -2.362151 -3.433195 10.563991 -4.509068 0.233803 -6.155667 8.316032 -7.896872 -9.210049 0.146552 3.455486 -14.587947 -5.644204 -0.366413 6.885127 
-43.129200 50.607056 0.756992 0.195315 0.292967 40.147530 0.000000 0.000000 0.000000 -4.033226 0.194829 -0.248112 5.214689 -0.435301 7.766603 -8.499352 1.101398 7.249084 -2.367247 2.639281 -3.029225 8.567968 -64.080925 -56.938713 -105.240120 5.196951 32.492706 19.119850 -0.477108 -4.083999 9.417291 14.608173 -4.261595 51.880180 -24.189291 9.088364 44.242348 11.171271 22.885973 -0.473989 -9.190682 -3.561458 9.047485 7.360617 7.745465 -2.322772 -3.452313 10.532642 -4.525980 0.233083 -6.177463 8.421507 -7.866577 -9.206216 0.187324 3.411076 -14.594420 -5.702839 -0.380089 6.933531 
-43.100506 50.617119 0.777806 0.078127 0.410156 40.176411 0.000000 0.000000 0.000000 -3.945331 0.175365 -0.266001 5.340182 -0.384422 7.689238 -8.781575 0.913320 7.301985 -2.386851 2.675793 -2.939739 8.914692 -63.831989 -57.034153 -105.243263 5.200965 32.202282 19.313103 -0.315460 -4.072189 9.428238 14.631182 -4.176543 51.882042 -24.179586 8.971183 44.209091 11.104251 23.057747 -0.460776 -9.092042 -3.558747 9.244656 7.361913 7.814194 -2.322353 -3.481183 10.435991 -4.575158 0.244008 -6.163149 8.658441 -7.898379 -9.300262 0.090393 3.438731 -14.591753 -5.678821 -0.367229 6.927997 
-43.067158 50.620766 0.804120 0.000000 0.527344 40.165970 0.000000 0.000000 0.000000 -3.886728 0.126661 -0.272277 5.406844 -0.295229 7.619606 -8.985909 0.744728 7.351830 -2.379434 2.791193 -2.897222 8.910209 -63.725903 -57.132011 -105.288300 5.174006 32.183102 19.289991 -0.140931 -4.042469 9.497507 14.615460 -4.139040 51.859356 -24.131586 9.000998 44.089397 11.115219 23.086737 -0.283125 -8.993244 -3.567285 9.440094 7.303429 7.804721 -2.283106 -3.451602 10.383425 -4.678185 0.249664 -6.247493 8.880846 -7.955260 -9.428413 0.040024 3.491734 -14.517776 -5.698111 -0.359249 6.921246 
-43.047146 50.616745 0.814439 0.146489 0.449217 40.147713 0.000000 0.000000 0.000000 -4.033210 0.107156 -0.300524 5.300130 -0.347061 7.610594 -9.132994 0.874342 7.298520 -2.463976 2.733531 -3.033041 9.239808 -63.527664 -57.343945 -105.162865 5.126836 31.930025 19.499557 -0.193480 -4.059984 9.484393 14.507634 -4.268790 51.861626 -24.023811 9.131495 44.002857 11.192737 22.952072 -0.374657 -9.077047 -3.563315 9.250710 7.251742 7.748528 -2.207404 -3.453964 10.495881 -4.721115 0.247205 -6.238744 8.749166 -8.027421 -9.398327 0.032208 3.500613 -14.508787 -5.710711 -0.382878 6.953762 
-43.025375 50.609447 0.816982 0.253912 0.400387 40.138561 0.000000 0.000000 0.000000 -4.140631 0.097401 -0.309786 5.271890 -0.437143 7.613087 -9.369175 1.179733 7.166246 -2.480905 2.699938 -3.131648 9.614434 -63.448044 -57.584793 -104.972244 5.135875 31.979694 19.570608 -0.354546 -4.081827 9.418852 14.399843 -4.342976 51.934074 -24.060089 9.057196 43.988659 11.173350 22.973557 -0.249994 -9.059732 -3.575323 9.234723 7.195513 7.670438 -2.367981 -3.439489 10.603873 -4.662338 0.259099 -6.179541 8.638604 -8.063381 -9.433213 0.108183 3.491611 -14.483693 -5.773984 -0.373280 6.991148 
-42.997063 50.613216 0.831203 0.351568 0.322260 40.226639 0.000000 0.000000 0.000000 -4.267582 0.077908 -0.347611 5.142989 -0.378195 7.489713 -9.378697 1.142513 7.119505 -2.528076 2.795936 -3.234872 10.064296 -63.441059 -58.009972 -104.705299 5.123305 31.993477 19.926893 -0.787582 -4.162559 9.321382 14.428680 -4.446724 51.940155 -24.118704 8.891273 44.078712 11.120410 22.939318 -0.358430 -8.870604 -3.569804 9.119653 7.177737 7.608665 -2.362784 -3.444584 10.574177 -4.701150 0.249986 -6.120506 8.577024 -8.080256 -9.435754 0.062639 3.495319 -14.506604 -5.789400 -0.364446 7.006011 
-42.989136 50.612343 0.842213 0.351567 0.273432 40.275162 0.000000 0.000000 0.000000 -4.296884 0.116858 -0.497061 5.133035 -0.319503 7.319554 -9.719182 0.908519 7.179659 -2.567128 2.967403 -3.270129 10.246970 -63.275063 -58.477615 -104.625290 5.023034 31.961563 19.871466 -0.831010 -4.170152 9.259243 14.407473 -4.497314 52.002766 -24.135881 8.768404 44.209988 11.060766 23.077299 -0.550587 -8.892022 -3.552059 9.119875 7.236595 7.617389 -2.352347 -3.434179 10.426657 -4.742152 0.251490 -6.247916 8.577871 -7.974425 -9.301448 0.000910 3.403437 -14.743900 -5.745843 -0.385924 7.059534 
-42.970638 50.616615 0.854925 0.322268 0.234371 40.323624 0.000000 0.000000 0.000000 -4.277360 0.155815 -0.626888 5.046640 -0.290868 7.214560 -10.110159 0.961943 7.174209 -2.684541 3.180035 -3.250876 10.774893 -62.940857 -59.147507 -104.584938 4.913645 31.843674 19.907394 -0.916404 -4.181159 9.167661 14.445292 -4.489024 51.885368 -23.984121 8.833982 44.324753 11.080216 22.925436 -0.479491 -8.946417 -3.557790 9.154268 7.271786 7.672526 -2.391631 -3.442928 10.380841 -4.745595 0.267953 -6.262217 8.618631 -7.936207 -9.295827 -0.007756 3.401092 -14.812852 -5.765962 -0.393531 7.077932 
-42.939552 50.620392 0.847412 0.410160 0.253900 40.324127 0.000000 0.000000 0.000000 -4.267585 0.107124 -0.662291 4.977822 -0.279403 7.182566 -10.531373 1.153277 7.090205 -2.784009 3.254507 -3.243502 11.957317 -62.605385 -60.347298 -104.366745 4.789956 31.687174 19.723730 -1.459366 -4.261525 9.196560 14.571727 -4.502515 51.507679 -23.832817 9.047742 44.359585 11.155497 22.725641 -0.508403 -8.948169 -3.559521 9.107800 7.176354 7.588936 -2.402941 -3.444363 10.431010 -4.745852 0.246912 -6.218109 8.568398 -8.061999 -9.403219 0.077976 3.464776 -14.710561 -5.834030 -0.382525 7.084138 
-42.924324 50.612465 0.839936 0.419926 0.263665 40.275417 0.000000 0.000000 0.000000 -4.218758 0.107131 -0.691496 4.996114 -0.256532 7.091054 -11.029707 1.177349 7.031293 -2.797765 3.399564 -3.189399 13.472018 -62.174427 -61.875462 -103.894188 4.682024 31.936544 19.827808 -1.666869 -4.304418 9.168506 14.641373 -4.445657 51.361118 -23.711447 9.163029 44.454407 11.168492 22.731565 -0.419248 -8.981905 -3.565615 9.110278 7.128981 7.541996 -2.395829 -3.419837 10.556375 -4.757591 0.252248 -6.162990 8.549788 -8.092696 -9.387668 0.068400 3.435067 -14.622428 -5.810760 -0.389446 7.112508 
-42.920048 50.617496 0.841622 0.400397 0.312492 40.207317 0.000000 0.000000 0.000000 -4.111338 0.126626 -0.692696 5.131397 -0.268923 7.002178 -12.006731 1.206583 6.929186 -2.657890 3.543256 -3.093840 14.968100 -61.847137 -63.618294 -103.290840 4.565078 32.529823 19.739349 -1.791174 -4.320612 9.090562 14.464233 -4.323732 51.624165 -23.554518 9.008508 44.283699 11.128614 22.861822 -0.566771 -9.098466 -3.555323 9.161283 7.085582 7.536092 -2.402251 -3.423322 10.644479 -4.769707 0.256046 -6.161610 8.590171 -8.083051 -9.336751 0.079154 3.336255 -14.747438 -5.775988 -0.385844 7.187883 
-42.915520 50.632599 0.844604 0.400395 0.273431 40.167973 0.000000 0.000000 0.000000 -4.121109 0.155846 -0.724119 5.199949 -0.224409 6.994453 -12.750156 1.327938 6.883368 -2.580109 3.852879 -3.106904 15.791230 -61.545776 -64.614975 -102.854836 4.406149 32.120918 19.949875 -1.980726 -4.357521 9.118960 14.410811 -4.347752 51.660698 -23.484642 8.997499 43.935898 11.169190 22.895809 -0.486654 -9.142531 -3.562029 9.167179 7.108658 7.558666 -2.403767 -3.435335 10.625995 -4.786848 0.264397 -6.200769 8.558702 -8.071732 -9.355049 0.091126 3.388162 -14.698503 -5.821084 -0.381402 7.158820 
-42.914131 50.634991 0.842377 0.507814 0.146479 40.050148 0.000000 0.000000 0.000000 -4.267605 0.204510 -0.669558 5.235290 -0.041733 6.991523 -13.343148 0.969214 7.031418 -2.584904 4.142361 -3.227891 16.093039 -61.274864 -65.042961 -102.514465 4.293152 31.952547 19.929585 -2.227139 -4.395857 9.243650 14.442109 -4.494702 51.710041 -23.629473 8.846128 43.669121 11.151718 23.097322 -0.686657 -9.037259 -3.552460 9.050366 7.137625 7.563540 -2.409893 -3.451707 10.714474 -4.824149 0.258193 -6.214797 8.375297 -8.054387 -9.262383 0.010261 3.366030 -14.693956 -5.749849 -0.380299 7.147260 
-42.910736 50.618759 0.831429 0.566408 0.136712 39.981842 0.000000 0.000000 0.000000 -4.296906 0.214240 -0.660628 5.207633 -0.050873 7.074512 -13.706740 1.246806 6.969031 -2.575324 4.417155 -3.255620 16.223768 -61.020321 -65.471146 -102.227722 4.169667 31.893524 20.052485 -2.423397 -4.439709 9.423266 14.623703 -4.554429 51.549461 -23.948847 8.711069 43.765171 11.127522 23.035173 -0.681272 -8.968443 -3.551878 8.977612 7.086658 7.507372 -2.442274 -3.443803 10.882868 -4.777189 0.253417 -6.173464 8.295821 -8.112030 -9.280337 0.022672 3.369643 -14.595628 -5.719336 -0.381681 7.145975 
-42.900669 50.618000 0.831945 0.556641 0.097652 39.903309 0.000000 0.000000 0.000000 -4.296931 0.292145 -0.607888 5.071572 -0.048679 7.170776 -13.689308 1.463839 6.861071 -2.538080 4.609544 -3.245507 16.059090 -60.988625 -65.502754 -102.127342 4.148992 32.168892 19.963306 -2.283320 -4.407098 9.446087 14.708068 -4.567642 51.461605 -24.030399 8.840709 43.702003 11.173505 22.871908 -0.601808 -8.846210 -3.554937 8.989905 7.117106 7.561030 -2.451046 -3.482959 10.972217 -4.800419 0.250088 -6.154118 8.298478 -8.084311 -9.226552 0.000116 3.357174 -14.509049 -5.729029 -0.389179 7.164247 
-42.889973 50.625431 0.833101 0.478516 0.107418 39.727474 0.000000 0.000000 0.000000 -4.228600 0.360345 -0.544220 5.010657 0.084131 7.193797 -13.511549 1.266637 6.926873 -2.469072 4.592175 -3.188094 16.284136 -60.837841 -65.607758 -101.958519 4.126188 31.956751 20.002283 -2.280332 -4.408547 9.534274 14.964924 -4.535364 51.303223 -24.075689 8.943069 43.644482 11.181914 23.043072 -0.624053 -8.955184 -3.558190 9.137662 7.127617 7.611190 -2.436403 -3.468949 10.990472 -4.862880 0.255185 -6.227410 8.332397 -8.080107 -9.246530 -0.010282 3.387158 -14.374031 -5.706217 -0.405252 7.146105 
